<svg width="512" height="512" xmlns="http://www.w3.org/2000/svg">

 <g>
  <title>background</title>
  <rect fill="none" id="canvas_background" height="402" width="582" y="-1" x="-1"/>
 </g>
 <g>
  <title>Layer 1</title>
  <path id="svg_2" fill="#e5474b" d="m255.2,504.2c-133.4,0.6 -245,-108.3 -245.1,-245.3c0,-135.8 110.3,-245.9 246.1,-245.7c136.2,0.3 245.8,111.7 245.1,247.1c-0.7,134.4 -111.2,245 -246.1,243.9zm11.2,-35.7c15.6,0.3 41.3,-5.1 66.3,-14.5c3.5,-1.3 5.1,-3 4,-7c-1.5,-5.8 -2.3,-11.7 -3.5,-17.6c-6,-29.2 -13.8,-57.9 -22.8,-86.3c-4.8,-15 -10.4,-29.8 -15.4,-44.8c-1.5,-4.6 -3.5,-6 -8.1,-3.7c-4.3,2.1 -9,3.5 -13.4,5.3c-36.7,15 -70,35.4 -98.8,62.8c-18.1,17.1 -33.9,36.1 -46.1,58c-1.6,3 -0.9,4.2 1.5,6c37.1,27.5 78.8,41.5 136.3,41.8zm-220.3,-205.6c0.4,28.7 6.7,56.1 18.5,82.2c8.2,18.3 18.9,35.1 32.1,50.3c1.9,2.2 3.1,3.5 5.3,-0.1c21.1,-33.6 47.6,-62.3 78.8,-86.8c28.4,-22.2 59.7,-39.2 94.4,-49.6c2.2,-0.6 3.2,-1.3 2,-3.8c-4.7,-9.7 -9.3,-19.5 -13.9,-29.3c-1.3,-2.7 -3.1,-3.3 -6,-2.5c-24.1,7.1 -48.6,12.6 -73.4,16.9c-42.2,7.4 -84.8,11.4 -127.6,11.9c-10.3,0.2 -10.3,0.1 -10.2,10.8zm25.3,-47.2c21,-0.9 41.8,-3.2 62.7,-5.3c35.1,-3.7 69.7,-10.6 104,-18.7c6,-1.4 6.2,-2.1 3,-7.1c-1,-1.6 -2,-3.1 -2.9,-4.6c-20.9,-36.7 -44.1,-72 -68.7,-106.4c-2.8,-3.9 -4.8,-3.6 -8.4,-1.8c-42.6,21.9 -74.2,54.5 -95,97.6c-6.5,13.4 -11.1,27.4 -14.6,41.8c-0.9,3.9 0.3,4.7 3.8,4.6c5.4,-0.2 10.7,-0.1 16.1,-0.1zm182.6,-166.6c-13.5,0.5 -28.4,1.8 -43.1,4.9c-3.9,0.8 -4.1,1.8 -1.7,5c16,21.9 31.3,44.2 45.5,67.3c9.5,15.4 19.1,30.9 27.4,46.9c1.6,3.1 3.4,4 7,2.5c13.9,-5.6 27.5,-11.9 40.4,-19.4c23,-13.4 44,-29.3 61.1,-50c3,-3.7 3,-6.1 -0.9,-8.9c-6.5,-4.6 -12.7,-9.6 -19.4,-14c-34.8,-23 -73.2,-33.8 -116.3,-34.3zm211,195.2c-1.3,-22 -6.9,-46 -16.8,-69c-6.9,-15.9 -15.8,-30.7 -26.3,-44.6c-3.8,-5.1 -4.1,-5.2 -8.1,-0.1c-4,5.1 -8.5,9.8 -13.2,14.3c-27.6,27 -60,46.7 -95.3,61.7c-3.2,1.4 -4.4,2.2 -2.6,5.9c4.8,9.7 8.9,19.7 13.4,29.5c3.4,7.4 3.5,7.6 11.6,6.8c24.1,-2.3 48.2,-2.4 72.3,-0.8c18.7,1.3 37.5,3.2 55.9,6.8c9.5,1.9 9.4,2.2 9.1,-10.5zm-94,35.5c-7.1,-0.2 -19.4,0.7 -31.6,2.1c-7.3,0.9 -7.5,1.1 -4.8,8.2c6.6,17.4 12.1,35.2 17.3,53.1c8.1,28.1 15.2,56.5 20.3,85.4c0.6,3.2 1.3,3.9 4.3,1.8c17.8,-12.6 33.3,-27.5 46.4,-44.9c20.1,-26.6 33,-56.4 39.3,-89.1c0.7,-3.6 -0.5,-4.5 -3.6,-5.3c-26.9,-8 -54.4,-11.2 -87.6,-11.3z"/>
 </g>
</svg>